# xmcd
#
# Track frame offsets:
#	150
#	14596
#	28085
#	46529
#	55798
#	67517
#	84917
#	99392
#	114679
#	127170
#	144709
#	161160
#	176446
#
# Disc length: 2516 seconds
#
# Revision: 0
# Processed by: cddbd v1.5.2PL0 Copyright (c) Steve Scherf et al.
# Submitted via: audiograbber 1.83.01
#
DISCID=a509d20d
DTITLE=Owen Jason - Friday Night, It's Alright
DYEAR=1900
DGENRE=Country
TTITLE0=Damn Right
TTITLE1=I Won't Back Down
TTITLE2=Call Me The Breeze
TTITLE3=That's Alright 
TTITLE4=Crazy Little Thing Called Love
TTITLE5=Wanted 
TTITLE6=I'm On Fire 
TTITLE7=This Ole House 
TTITLE8=Last Train to Clarksville
TTITLE9=Tears On Fire
TTITLE10=Just When I Needed You Most
TTITLE11=Mustang Sally 
TTITLE12=Rockin' All Over The World
EXTD=
EXTT0=
EXTT1=
EXTT2=
EXTT3=
EXTT4=
EXTT5=
EXTT6=
EXTT7=
EXTT8=
EXTT9=
EXTT10=
EXTT11=
EXTT12=
PLAYORDER=
